<?xml version="1.0" encoding="utf-8"?><svg viewBox="0 0 512 512" xmlns="http://www.w3.org/2000/svg" xmlns:xlink="http://www.w3.org/1999/xlink"><style>:root>svg{display:none}:root>svg:target{display:block}</style><svg fill="none" viewBox="0 0 16 16" id="arrow-dawn-icon" xmlns="http://www.w3.org/2000/svg"><path d="m4 6 4 4 4-4" stroke="#3E4056" stroke-width="2" stroke-linecap="round" stroke-linejoin="round" opacity=".4"/></svg><svg viewBox="0 0 448 512" id="bell-icon" xmlns="http://www.w3.org/2000/svg"><path d="M224 0c-17.7 0-32 14.3-32 32v17.9C119.5 61.4 64 124.2 64 200v33.4c0 45.4-15.5 89.5-43.8 124.9L5.3 377c-5.8 7.2-6.9 17.1-2.9 25.4S14.8 416 24 416h400c9.2 0 17.6-5.3 21.6-13.6s2.9-18.2-2.9-25.4l-14.9-18.6c-28.3-35.5-43.8-79.6-43.8-125V200c0-75.8-55.5-138.6-128-150.1V32c0-17.7-14.3-32-32-32zm0 96h8c57.4 0 104 46.6 104 104v33.4c0 47.9 13.9 94.6 39.7 134.6H72.3c25.8-40 39.7-86.7 39.7-134.6V200c0-57.4 46.6-104 104-104h8zm64 352H160c0 17 6.7 33.3 18.7 45.3S207 512 224 512s33.3-6.7 45.3-18.7S288 465 288 448z"/></svg><svg fill="none" viewBox="0 0 20 20" id="block-icon" xmlns="http://www.w3.org/2000/svg"><path opacity=".01" fill="#ECF1F8" d="M0 0h20v20H0z"/><mask id="ca" style="mask-type:luminance" maskUnits="userSpaceOnUse" x="0" y="0" width="20" height="20"><path fill="#fff" d="M0 0h20v20H0z"/></mask><g mask="url(#ca)" stroke="#3E4056" stroke-width="2"><path d="M14.95 14.95a7 7 0 1 1-9.9-9.9 7 7 0 0 1 9.9 9.9ZM7 13l6-6M13 13 7 7"/></g></svg><svg fill="none" viewBox="0 0 20 20" id="clip-icon" xmlns="http://www.w3.org/2000/svg"><path fill-rule="evenodd" clip-rule="evenodd" d="M8.588 4.34a5.001 5.001 0 0 1 7.071 7.071l-4.247 4.248a5.002 5.002 0 0 1-7.069-.002 5.001 5.001 0 0 1-.002-7.069l4.247-4.247Zm1.414 1.415-4.247 4.247a3 3 0 0 0 4.243 4.243l4.247-4.247a3 3 0 0 0-4.243-4.243ZM7.879 5.05 5.05 7.88l1.414 1.414 2.829-2.829L7.879 5.05Zm5.657 5.657-2.829 2.829 1.414 1.414 2.829-2.829-1.414-1.414Zm-2.822-2.835a.993.993 0 0 1 1.407.007 1 1 0 0 1 .007 1.407l-2.842 2.842a.993.993 0 0 1-1.407-.007 1 1 0 0 1-.007-1.407l2.842-2.842Z" fill="#3E4056"/><mask id="da" style="mask-type:luminance" maskUnits="userSpaceOnUse" x="2" y="2" width="16" height="16"><path fill-rule="evenodd" clip-rule="evenodd" d="M8.588 4.34a5.001 5.001 0 0 1 7.071 7.071l-4.247 4.248a5.002 5.002 0 0 1-7.069-.002 5.001 5.001 0 0 1-.002-7.069l4.247-4.247Zm1.414 1.415-4.247 4.247a3 3 0 0 0 4.243 4.243l4.247-4.247a3 3 0 0 0-4.243-4.243ZM7.879 5.05 5.05 7.88l1.414 1.414 2.829-2.829L7.879 5.05Zm5.657 5.657-2.829 2.829 1.414 1.414 2.829-2.829-1.414-1.414Zm-2.822-2.835a.993.993 0 0 1 1.407.007 1 1 0 0 1 .007 1.407l-2.842 2.842a.993.993 0 0 1-1.407-.007 1 1 0 0 1-.007-1.407l2.842-2.842Z" fill="#fff"/></mask><g mask="url(#da)"><path fill="#3E4056" d="M2 2h16v16H2z"/></g><path fill-rule="evenodd" clip-rule="evenodd" d="M5.05 7.879a.998.998 0 0 1 1.415 0 .998.998 0 0 1 0 1.414.998.998 0 0 1-1.415 0 .998.998 0 0 1 0-1.414Zm5.657 5.657a.998.998 0 0 1 1.414 0 .997.997 0 0 1 0 1.414.997.997 0 0 1-1.414 0 .998.998 0 0 1 0-1.414Zm2.829-2.829a.998.998 0 0 1 1.414 0 .998.998 0 0 1 0 1.414.998.998 0 0 1-1.414 0 .997.997 0 0 1 0-1.414ZM7.879 5.05a.998.998 0 0 1 1.414 0 .998.998 0 0 1 0 1.414.998.998 0 0 1-1.414 0 .998.998 0 0 1 0-1.414Z" fill="#3E4056"/><mask id="db" style="mask-type:luminance" maskUnits="userSpaceOnUse" x="4" y="4" width="12" height="12"><path fill-rule="evenodd" clip-rule="evenodd" d="M5.05 7.879a.998.998 0 0 1 1.415 0 .998.998 0 0 1 0 1.414.998.998 0 0 1-1.415 0 .998.998 0 0 1 0-1.414Zm5.657 5.657a.998.998 0 0 1 1.414 0 .997.997 0 0 1 0 1.414.997.997 0 0 1-1.414 0 .998.998 0 0 1 0-1.414Zm2.829-2.829a.998.998 0 0 1 1.414 0 .998.998 0 0 1 0 1.414.998.998 0 0 1-1.414 0 .997.997 0 0 1 0-1.414ZM7.879 5.05a.998.998 0 0 1 1.414 0 .998.998 0 0 1 0 1.414.998.998 0 0 1-1.414 0 .998.998 0 0 1 0-1.414Z" fill="#fff"/></mask><g mask="url(#db)"><path fill="#3E4056" d="M2 2h16v16H2z"/></g></svg><svg viewBox="0 0 128 512" id="dots-menu-icon" xmlns="http://www.w3.org/2000/svg"><path d="M64 360a56 56 0 1 0 0 112 56 56 0 1 0 0-112zm0-160a56 56 0 1 0 0 112 56 56 0 1 0 0-112zm56-104A56 56 0 1 0 8 96a56 56 0 1 0 112 0z"/></svg><svg fill="none" viewBox="0 0 20 20" id="edit-icon" xmlns="http://www.w3.org/2000/svg"><path fill-rule="evenodd" clip-rule="evenodd" d="M10.896 3.414a2 2 0 0 1 2.829 0l2.828 2.829a2 2 0 0 1 0 2.828L9.605 16.02a.5.5 0 0 1-.307.144l-3.716.35a2 2 0 0 1-2.176-2.207l.396-3.642a.5.5 0 0 1 .143-.3l6.951-6.95Zm.707 2.122a1 1 0 0 1 1.414 0l1.414 1.415a1 1 0 0 1 0 1.414l-.708.708-2.828-2.829.708-.708ZM9.48 7.66l-3.537 3.537-.414 2.066a1 1 0 0 0 1.177 1.176l2.065-.413 3.537-3.537L9.48 7.659Z" fill="#F05D63"/></svg><svg viewBox="0 0 512 512" id="gift-icon" xmlns="http://www.w3.org/2000/svg"><path d="m190.5 68.8 34.8 59.2H152c-22.1 0-40-17.9-40-40s17.9-40 40-40h2.2c14.9 0 28.8 7.9 36.3 20.8zM64 88c0 14.4 3.5 28 9.6 40H32c-17.7 0-32 14.3-32 32v64c0 17.7 14.3 32 32 32h448c17.7 0 32-14.3 32-32v-64c0-17.7-14.3-32-32-32h-41.6c6.1-12 9.6-25.6 9.6-40 0-48.6-39.4-88-88-88h-2.2c-31.9 0-61.5 16.9-77.7 44.4L256 85.5l-24.1-41C215.7 16.9 186.1 0 154.2 0H152c-48.6 0-88 39.4-88 88zm336 0c0 22.1-17.9 40-40 40h-73.3l34.8-59.2c7.6-12.9 21.4-20.8 36.3-20.8h2.2c22.1 0 40 17.9 40 40zM32 288v176c0 26.5 21.5 48 48 48h144V288H32zm256 224h144c26.5 0 48-21.5 48-48V288H288v224z"/></svg><svg viewBox="0 0 512 512" id="like-icon" xmlns="http://www.w3.org/2000/svg"><path d="m47.6 300.4 180.7 168.7c7.5 7 17.4 10.9 27.7 10.9s20.2-3.9 27.7-10.9l180.7-168.7c30.4-28.3 47.6-68 47.6-109.5v-5.8c0-69.9-50.5-129.5-119.4-141-45.6-7.6-92 7.3-124.6 39.9l-12 12-12-12c-32.6-32.6-79-47.5-124.6-39.9C50.5 55.6 0 115.2 0 185.1v5.8c0 41.5 17.2 81.2 47.6 109.5z"/></svg><svg viewBox="0 0 448 512" id="m-icon" xmlns="http://www.w3.org/2000/svg"><path d="M22.7 33.4c13.5-4.1 28.1 1.1 35.9 12.9l165.4 248L389.4 46.2c7.8-11.7 22.4-17 35.9-12.9S448 49.9 448 64v384c0 17.7-14.3 32-32 32s-32-14.3-32-32V169.7L250.6 369.8c-5.9 8.9-15.9 14.2-26.6 14.2s-20.7-5.3-26.6-14.2L64 169.7V448c0 17.7-14.3 32-32 32S0 465.7 0 448V64c0-14.1 9.2-26.5 22.7-30.6z"/></svg><svg fill="none" viewBox="0 0 20 20" id="report-icon" xmlns="http://www.w3.org/2000/svg"><path opacity=".01" fill="#ECF1F8" d="M0 0h20v20H0z"/><mask id="ja" style="mask-type:luminance" maskUnits="userSpaceOnUse" x="0" y="0" width="20" height="20"><path fill="#fff" d="M0 0h20v20H0z"/></mask><g mask="url(#ja)"><path opacity=".01" fill="#C3CADF" d="M0 0h20v20H0z"/><path d="M4 17a2 2 0 0 1-2-2V3a2 2 0 0 1 2-2h10a2 2 0 0 1 2 2v1" stroke="#3E4056" stroke-width="2"/><rect x="5" y="4" width="8" height="2" rx="1" fill="#3E4056"/><path fill-rule="evenodd" clip-rule="evenodd" d="M5 9a1 1 0 0 1 1-1h4l-2 2H6a1 1 0 0 1-1-1ZM13.893 6.928a2 2 0 0 1 2.829 0l2.828 2.828a2 2 0 0 1 0 2.829l-6.944 6.943a.5.5 0 0 1-.306.144l-3.715.35a2 2 0 0 1-2.176-2.206l.394-3.642a.5.5 0 0 1 .144-.3l6.946-6.946Zm.707 2.121a1 1 0 0 1 1.415 0l1.414 1.414a1 1 0 0 1 0 1.414l-.707.707-2.829-2.828.707-.707Zm-2.12 2.121-3.536 3.535-.413 2.065a1 1 0 0 0 1.177 1.177l2.065-.413 3.534-3.535-2.828-2.829Z" fill="#3E4056"/></g></svg><svg viewBox="0 0 384 512" id="view-icon" xmlns="http://www.w3.org/2000/svg"><path d="M73 39c-14.8-9.1-33.4-9.4-48.5-.9S0 62.6 0 80v352c0 17.4 9.4 33.4 24.5 41.9S58.2 482 73 473l288-176c14.3-8.7 23-24.2 23-41s-8.7-32.2-23-41L73 39z"/></svg></svg>